<svg xmlns="http://www.w3.org/2000/svg" viewBox="0 0 841.9 595.3">
  <g fill="#61DAFB">
    <path d="M421.6 296.5c-41.8 0-75.7-33.9-75.7-75.7s33.9-75.7 75.7-75.7 75.7 33.9 75.7 75.7-33.9 75.7-75.7 75.7z"/>
    <path d="M520.5 78.1c-25.9 0-54.8 9.5-86.2 27.9-9.5 5.6-18.8 11.9-27.9 18.8-9.1-6.9-18.4-13.2-27.9-18.8C376.3 87.6 347.4 78.1 321.5 78.1c-71.1 0-129 57.9-129 129 0 43.6 19.4 87.3 54.6 125.2 7.6 8.3 15.8 16.2 24.3 23.7-8.5 7.5-16.7 15.4-24.3 23.7-35.2 37.9-54.6 81.6-54.6 125.2 0 71.1 57.9 129 129 129 25.9 0 54.8-9.5 86.2-27.9 9.5-5.6 18.8-11.9 27.9-18.8 9.1 6.9 18.4 13.2 27.9 18.8 31.4 18.4 60.3 27.9 86.2 27.9 71.1 0 129-57.9 129-129 0-43.6-19.4-87.3-54.6-125.2-7.6-8.3-15.8-16.2-24.3-23.7 8.5-7.5 16.7-15.4 24.3-23.7 35.2-37.9 54.6-81.6 54.6-125.2 0-71.1-57.9-129-129-129z"/>
  </g>
</svg>
